<svg id="visual" viewBox="0 0 960 540" width="960" height="540" xmlns="http://www.w3.org/2000/svg" xmlns:xlink="http://www.w3.org/1999/xlink" version="1.1"><path d="M0 60L26.7 72.7C53.3 85.3 106.7 110.7 160 115.2C213.3 119.7 266.7 103.3 320 93.5C373.3 83.7 426.7 80.3 480 79.5C533.3 78.7 586.7 80.3 640 77.5C693.3 74.7 746.7 67.3 800 75.5C853.3 83.7 906.7 107.3 933.3 119.2L960 131L960 0L933.3 0C906.7 0 853.3 0 800 0C746.7 0 693.3 0 640 0C586.7 0 533.3 0 480 0C426.7 0 373.3 0 320 0C266.7 0 213.3 0 160 0C106.7 0 53.3 0 26.7 0L0 0Z" fill="#8a0027"></path><path d="M0 174L26.7 198.3C53.3 222.7 106.7 271.3 160 282.2C213.3 293 266.7 266 320 258.7C373.3 251.3 426.7 263.7 480 259.2C533.3 254.7 586.7 233.3 640 237C693.3 240.7 746.7 269.3 800 281C853.3 292.7 906.7 287.3 933.3 284.7L960 282L960 129L933.3 117.2C906.7 105.3 853.3 81.7 800 73.5C746.7 65.3 693.3 72.7 640 75.5C586.7 78.3 533.3 76.7 480 77.5C426.7 78.3 373.3 81.7 320 91.5C266.7 101.3 213.3 117.7 160 113.2C106.7 108.7 53.3 83.3 26.7 70.7L0 58Z" fill="#c31d39"></path><path d="M0 390L26.7 398C53.3 406 106.7 422 160 417.5C213.3 413 266.7 388 320 382.7C373.3 377.3 426.7 391.7 480 401.5C533.3 411.3 586.7 416.7 640 414.8C693.3 413 746.7 404 800 404C853.3 404 906.7 413 933.3 417.5L960 422L960 280L933.3 282.7C906.7 285.3 853.3 290.7 800 279C746.7 267.3 693.3 238.7 640 235C586.7 231.3 533.3 252.7 480 257.2C426.7 261.7 373.3 249.3 320 256.7C266.7 264 213.3 291 160 280.2C106.7 269.3 53.3 220.7 26.7 196.3L0 172Z" fill="#d7495d"></path><path d="M0 476L26.7 477C53.3 478 106.7 480 160 475.5C213.3 471 266.7 460 320 454.5C373.3 449 426.7 449 480 456.2C533.3 463.3 586.7 477.7 640 475C693.3 472.3 746.7 452.7 800 451.8C853.3 451 906.7 469 933.3 478L960 487L960 420L933.3 415.5C906.7 411 853.3 402 800 402C746.7 402 693.3 411 640 412.8C586.7 414.7 533.3 409.3 480 399.5C426.7 389.7 373.3 375.3 320 380.7C266.7 386 213.3 411 160 415.5C106.7 420 53.3 404 26.7 396L0 388Z" fill="#c31d39"></path><path d="M0 541L26.7 541C53.3 541 106.7 541 160 541C213.3 541 266.7 541 320 541C373.3 541 426.7 541 480 541C533.3 541 586.7 541 640 541C693.3 541 746.7 541 800 541C853.3 541 906.7 541 933.3 541L960 541L960 485L933.3 476C906.7 467 853.3 449 800 449.8C746.7 450.7 693.3 470.3 640 473C586.7 475.7 533.3 461.3 480 454.2C426.7 447 373.3 447 320 452.5C266.7 458 213.3 469 160 473.5C106.7 478 53.3 476 26.7 475L0 474Z" fill="#8a0027"></path></svg>